/* XPM */
static char *result[] = {
/* columns rows colors chars-per-pixel */
"32 32 29 1 ",
"  c black",
". c #464646",
"X c #232323",
"o c gray11",
"O c #101010",
"+ c #1B1B1B",
"@ c #151515",
"# c #010101",
"$ c gray9",
"% c #161616",
"& c gray10",
"* c gray3",
"= c gray6",
"- c #111111",
"; c #0E0E0E",
": c gray8",
"> c #040404",
", c #090909",
"< c #0B0B0B",
"1 c gray4",
"2 c #131313",
"3 c #181818",
"4 c #060606",
"5 c #191919",
"6 c #020202",
"7 c #070707",
"8 c gray1",
"9 c #434343",
"0 c gray7",
/* pixels */
"                                ",
" ....XX..................XX.... ",
" X..XX.X................X.XX..X ",
" X.X........................X.X ",
" X..                        ..X ",
" ... oOOOOO oooooooo OOOOOo ... ",
" ... oooOOo ooooo+oo oOOooo ... ",
" ...       O        O       ... ",
" ... ooo OOoOooo@#$OoOO ooo ... ",
" ... ooo ooooooo%#%oooo ooo ... ",
" ...    o              o    ... ",
" X.. oooooo oo&*+ooo oooooo ..X ",
" .X. =--==; %%:>%ooo oooooo .X. ",
" ... ,<<*1# >>#     O       ..X ",
" ... ooooo& $$2 3ooOOoOOO o ..X ",
" ...  o         oooooOooo o ..X ",
" X.. o oooOooo34         o  ... ",
" X.. o OOOoOOoo@535$ +33333 ... ",
" X..       O    46#6 788884 9.. ",
" .X. oooooo oo&+#+$% @@@@@@ .X. ",
" X.. oooooo oo3+#ooo oooooo ..X ",
" ...    o              o    ... ",
" ... ooo ooooo$#@oooooo ooo ... ",
" ... ooo OOoOo$>@ooOoOO ooo ... ",
" ...       O        O       ... ",
" ... oooOOo oo3#5ooo oOOooo ... ",
" ... oOOOOO oo+05ooo OOOOOo ... ",
" X..                        ..X ",
" X.X........................X.X ",
" X..XX.X................X.XX..X ",
" ....XX..................XX.... ",
"                                "
};
