/* XPM */
static char *result[] = {
/* columns rows colors chars-per-pixel */
"32 32 13 1 ",
"  c #3C2400",
". c #3F2704",
"X c #402A00",
"o c #432B05",
"O c #4E2F09",
"+ c #B17818",
"@ c #CC9915",
"# c #FFDC16",
"$ c #FFDC18",
"% c #FFE263",
"& c #FFFCCD",
"* c #FFFED9",
"= c None",
/* pixels */
"================================",
"================================",
"================================",
"================================",
"================================",
"===========XXXXXXXXoo===========",
"===========XXXXXXXXoo===========",
"=========oo&&&&&&&&&&..=========",
"=========oo&&&&&&&&&&..=========",
"=======oo**####%%%%%%%%..=======",
"=======oo**####%%%%%%%%..=======",
"=====..**##@@######@@%%##..=====",
"=====..**##@@######@@%%##..=====",
"=====..##$$@@@@$$@@@@####..=====",
"=====..##$$@@@@$$@@@@####..=====",
"=====..##$$@@$$@@$$@@####..=====",
"=====..##$$@@$$@@$$@@####..=====",
"=====..##$$@@$$@@$$@@####..=====",
"=====..##$$@@$$@@$$@@####..=====",
"=====..####@@$$$$$$@@##++..=====",
"=====..####@@$$$$$$@@##++..=====",
"=======OO$$########$$++oo=======",
"=======OO$$########$$++oo=======",
"=========  ++++++++++XX=========",
"=========  ++++++++++XX=========",
"===========          ===========",
"===========          ===========",
"================================",
"================================",
"================================",
"================================",
"================================"
};
