/* XPM */
static char *result[] = {
/* columns rows colors chars-per-pixel */
"32 32 20 1 ",
"  c black",
". c #190F15",
"X c #1A1015",
"o c #1C1117",
"O c #36251F",
"+ c #35271F",
"@ c #2D1C24",
"# c #301D26",
"$ c #301D27",
"% c #351F2A",
"& c #563F2A",
"* c #422835",
"= c #664729",
"- c #7A5937",
"; c #523A42",
": c #8D6845",
"> c #487085",
", c #5788A1",
"< c #5A8CA6",
"1 c None",
/* pixels */
"111111111oooooooooooooo111111111",
"111111ooo;;o;;;o;;;o;;;ooo111111",
"1111oo;;;**o**$o**$o**$o;;oo1111",
"111o;;o$*oooooooooooooo;**;;o111",
"11o***ooo              ooo**$o11",
"1oo$$oo                   ooooo1",
"1o;oo&o                    o;;o1",
"o**;o&o                    oo**o",
"o**o&=o                     o$$o",
"$$$o:=o                     oooo",
"ooo&:=o                      o;;",
";;o:-=o                      o**",
"*ooo-=o                      o**",
"$o>oo=o                      o$$",
"oo><o=o                      ooo",
";o>oo=o                      o;;",
"*ooo+=o                      o**",
"$$o+-&o                      o$$",
"ooo-:&o>o                    o**",
";;o--&o<o                    o$$",
"**o:-&o<o                    ooo",
"$$o:-&o>o                    o;;",
"oooo:=o,.                    o**",
"o**o&=oX                    o$$o",
"o**;o&o                    oo**o",
"1o;ooOo                    o;;o1",
"1oo%@oo                   ooooo1",
"11o**#ooo              ooo**$o11",
"111o;;o$*oooooooooooooo;**;;o111",
"1111oo;;;**o**$o**$o**$o;;oo1111",
"111111ooo;;o;;;o;;;o;;;ooo111111",
"111111111oooooooooooooo111111111"
};
