/* XPM */
static char *result[] = {
/* columns rows colors chars-per-pixel */
"32 32 21 1 ",
"  c black",
". c #342A25",
"X c #3C312C",
"o c #7A2D18",
"O c #512D23",
"+ c #5B3C2C",
"@ c #453A35",
"# c #4A413C",
"$ c #5A5237",
"% c #60583C",
"& c #645C3F",
"* c #695D58",
"= c #5E724A",
"- c #677755",
"; c #6A7A5A",
": c #70805F",
"> c #778667",
", c #8DAB5F",
"< c #A2A97F",
"1 c #BEC49F",
"2 c None",
/* pixels */
"22222222222222222222222222222222",
"22222222222222222222222222222222",
"22222222222222222222222222222222",
"222222222222     222222222222222",
"22222222222 oOO+o 22222222222222",
"2222222222 +oOOo== 2222222222222",
"222222222 +ooOoo=== 222222222222",
"222222222 o=ooooo== 222222222222",
"222222222 o-o::oo== 222222222222",
"222222222 -:o:::oo= 222222222222",
"222222222   :o   o= 222222222222",
"222222222 1,o+,1oo 2222222222222",
"222222222 -::+:::o 2222222222222",
"222222222 o:::++:=  222222222222",
"222222222 =<:<:<+XX@ 22222222222",
"2222222222 =<o<oXXX@ 22222222222",
"22222222222 =ooXXXX@ 22222222222",
"22222222222 OXXXXXX@@ 2222222222",
"22222222222 >XXXX:.@@ 2222222222",
"22222222222 @o..;;.@@ 2222222222",
"22222222222 @ ..;.. @ 2222222222",
"2222222222 @@ ..... @@ 222222222",
"2222222222 >>&&&&&&$>> 222222222",
"22222222222  &&$&&&$  2222222222",
"222222222222 &% &&& 222222222222",
"222222222222 && &&& 222222222222",
"222222222222 ## ;;; 222222222222",
"22222222222 **# ::: 222222222222",
"22222222222         222222222222",
"22222222222222222222222222222222",
"22222222222222222222222222222222",
"22222222222222222222222222222222"
};
